{
    "accessors" : [
        {
            "bufferView" : 0,
            "componentType" : 5123,
            "count" : 10071,
            "max" : [
                2486
            ],
            "min" : [
                0
            ],
            "type" : "SCALAR"
        },
        {
            "bufferView" : 1,
            "componentType" : 5126,
            "count" : 2487,
            "max" : [
                0.6151880025863647,
                0.2339009940624237,
                0.00012892199447378516
            ],
            "min" : [
                -1.2360399961471558,
                -0.26256000995635986,
                -2.497450113296509
            ],
            "type" : "VEC3"
        },
        {
            "bufferView" : 2,
            "componentType" : 5126,
            "count" : 2487,
            "max" : [
                0.999969482421875,
                0.9998779296875,
                0.999969482421875
            ],
            "min" : [
                -0.999969482421875,
                -0.9998779296875,
                -0.99951171875
            ],
            "type" : "VEC3"
        },
        {
            "bufferView" : 3,
            "componentType" : 5126,
            "count" : 2487,
            "max" : [
                1.0,
                1.0,
                0.8287832736968994,
                1.0
            ],
            "min" : [
                -0.9999131560325623,
                -0.9617421627044678,
                -0.7609894871711731,
                -1.0
            ],
            "type" : "VEC4"
        },
        {
            "bufferView" : 4,
            "componentType" : 5126,
            "count" : 2487,
            "max" : [
                0.7112100124359131,
                1.0
            ],
            "min" : [
                0.44304001331329346,
                0.0
            ],
            "type" : "VEC2"
        }
    ],
    "asset" : {
        "generator" : "Khronos Blender glTF 2.0 exporter",
        "version" : "2.0"
    },
    "bufferViews" : [
        {
            "buffer" : 0,
            "byteLength" : 20142,
            "byteOffset" : 0,
            "target" : 34963
        },
        {
            "buffer" : 0,
            "byteLength" : 29844,
            "byteOffset" : 20144,
            "target" : 34962
        },
        {
            "buffer" : 0,
            "byteLength" : 29844,
            "byteOffset" : 49988,
            "target" : 34962
        },
        {
            "buffer" : 0,
            "byteLength" : 39792,
            "byteOffset" : 79832,
            "target" : 34962
        },
        {
            "buffer" : 0,
            "byteLength" : 19896,
            "byteOffset" : 119624,
            "target" : 34962
        }
    ],
    "buffers" : [
        {
            "byteLength" : 139520,
            "uri" : "deer.bin"
        }
    ],
    "meshes" : [
        {
            "name" : "deer",
            "primitives" : [
                {
                    "attributes" : {
                        "NORMAL" : 2,
                        "POSITION" : 1,
                        "TANGENT" : 3,
                        "TEXCOORD_0" : 4
                    },
                    "indices" : 0
                }
            ]
        }
    ],
    "nodes" : [
        {
            "name" : "Camera",
            "rotation" : [
                0.48170700669288635,
                0.3342514932155609,
                -0.21292175352573395,
                0.7816000580787659
            ],
            "scale" : [
                1.0,
                1.0,
                0.9999999403953552
            ],
            "translation" : [
                7.481131553649902,
                5.34366512298584,
                6.5076398849487305
            ]
        },
        {
            "mesh" : 0,
            "name" : "deer",
            "rotation" : [
                0.7071068286895752,
                0.0,
                -0.0,
                0.7071067094802856
            ]
        },
        {
            "name" : "Lamp",
            "rotation" : [
                0.16907575726509094,
                0.7558802962303162,
                -0.27217137813568115,
                0.570947527885437
            ],
            "scale" : [
                1.0,
                1.0,
                0.9999999403953552
            ],
            "translation" : [
                4.076245307922363,
                5.903861999511719,
                -1.0054539442062378
            ]
        }
    ],
    "scene" : 0,
    "scenes" : [
        {
            "name" : "Scene",
            "nodes" : [
                1,
                2,
                0
            ]
        }
    ]
}
