{
    "accessors" : [
        {
            "bufferView" : 0,
            "componentType" : 5123,
            "count" : 15432,
            "max" : [
                2811
            ],
            "min" : [
                0
            ],
            "type" : "SCALAR"
        },
        {
            "bufferView" : 1,
            "componentType" : 5126,
            "count" : 2812,
            "max" : [
                61.885005950927734,
                47.99708938598633,
                15.852145195007324
            ],
            "min" : [
                -28.555437088012695,
                -30.759315490722656,
                -37.63644790649414
            ],
            "type" : "VEC3"
        }
    ],
    "asset" : {
        "generator" : "Khronos Blender glTF 2.0 exporter",
        "version" : "2.0"
    },
    "bufferViews" : [
        {
            "buffer" : 0,
            "byteLength" : 30864,
            "byteOffset" : 0,
            "target" : 34963
        },
        {
            "buffer" : 0,
            "byteLength" : 33744,
            "byteOffset" : 30864,
            "target" : 34962
        }
    ],
    "buffers" : [
        {
            "byteLength" : 64608,
            "uri" : "rock1.bin"
        }
    ],
    "meshes" : [
        {
            "name" : "Volume16",
            "primitives" : [
                {
                    "attributes" : {
                        "POSITION" : 1
                    },
                    "indices" : 0
                }
            ]
        }
    ],
    "nodes" : [
        {
            "mesh" : 0,
            "name" : "Volume16",
            "rotation" : [
                0.7071068286895752,
                0.0,
                -0.0,
                0.7071067094802856
            ],
            "scale" : [
                0.0005000000237487257,
                0.0005000000237487257,
                0.0005000000237487257
            ]
        }
    ],
    "scene" : 0,
    "scenes" : [
        {
            "name" : "Scene",
            "nodes" : [
                0
            ]
        }
    ]
}
