{
    "accessors" : [
        {
            "bufferView" : 0,
            "componentType" : 5123,
            "count" : 8337,
            "max" : [
                1682
            ],
            "min" : [
                0
            ],
            "type" : "SCALAR"
        },
        {
            "bufferView" : 1,
            "componentType" : 5126,
            "count" : 1683,
            "max" : [
                1.4972599744796753,
                2.1414198875427246,
                -0.9730470180511475
            ],
            "min" : [
                -0.45041701197624207,
                -2.7550199031829834,
                -2.1678900718688965
            ],
            "type" : "VEC3"
        },
        {
            "bufferView" : 2,
            "componentType" : 5126,
            "count" : 1683,
            "max" : [
                0.999603271484375,
                0.999542236328125,
                0.999969482421875
            ],
            "min" : [
                -0.9990233778953552,
                -0.9851984977722168,
                -0.999969482421875
            ],
            "type" : "VEC3"
        }
    ],
    "asset" : {
        "generator" : "Khronos Blender glTF 2.0 exporter",
        "version" : "2.0"
    },
    "bufferViews" : [
        {
            "buffer" : 0,
            "byteLength" : 16674,
            "byteOffset" : 0,
            "target" : 34963
        },
        {
            "buffer" : 0,
            "byteLength" : 20196,
            "byteOffset" : 16676,
            "target" : 34962
        },
        {
            "buffer" : 0,
            "byteLength" : 20196,
            "byteOffset" : 36872,
            "target" : 34962
        }
    ],
    "buffers" : [
        {
            "byteLength" : 57068,
            "uri" : "whale1.bin"
        }
    ],
    "meshes" : [
        {
            "name" : "whale",
            "primitives" : [
                {
                    "attributes" : {
                        "NORMAL" : 2,
                        "POSITION" : 1
                    },
                    "indices" : 0
                }
            ]
        }
    ],
    "nodes" : [
        {
            "mesh" : 0,
            "name" : "whale",
            "rotation" : [
                0.7071068286895752,
                0.0,
                -0.0,
                0.7071067094802856
            ]
        }
    ],
    "scene" : 0,
    "scenes" : [
        {
            "name" : "Scene",
            "nodes" : [
                0
            ]
        }
    ]
}
