#  ==========================================================================
#  
#  Wavefront OBJ format exported by Red-i Productions' "Riptide Pro"
#     (a commercial plugin for Cinema 4D PC & Mac, R9.6 or later)
#  
#  Red-i Productions
#  http://skinprops.com
#  
#  ==========================================================================
mtllib pillar.mtl
v 0 0 -0
v 0 1 -0
v 0.05 0 -0
v 0.05 0 -0
v 0.05 1 -0
v 0.05 1 -0
v 0.0492404 0 -0.00868241
v 0.0492404 0 -0.00868241
v 0.0492404 1 -0.00868241
v 0.0492404 1 -0.00868241
v 0.0469846 0 -0.017101
v 0.0469846 0 -0.017101
v 0.0469846 1 -0.017101
v 0.0469846 1 -0.017101
v 0.0433013 0 -0.025
v 0.0433013 0 -0.025
v 0.0433013 1 -0.025
v 0.0433013 1 -0.025
v 0.0383022 0 -0.0321394
v 0.0383022 0 -0.0321394
v 0.0383022 1 -0.0321394
v 0.0383022 1 -0.0321394
v 0.0321394 0 -0.0383022
v 0.0321394 0 -0.0383022
v 0.0321394 1 -0.0383022
v 0.0321394 1 -0.0383022
v 0.025 0 -0.0433013
v 0.025 0 -0.0433013
v 0.025 1 -0.0433013
v 0.025 1 -0.0433013
v 0.017101 0 -0.0469846
v 0.017101 0 -0.0469846
v 0.017101 1 -0.0469846
v 0.017101 1 -0.0469846
v 0.00868241 0 -0.0492404
v 0.00868241 0 -0.0492404
v 0.00868241 1 -0.0492404
v 0.00868241 1 -0.0492404
v 3.06162e-18 0 -0.05
v 3.06162e-18 0 -0.05
v 3.06162e-18 1 -0.05
v 3.06162e-18 1 -0.05
v -0.00868241 0 -0.0492404
v -0.00868241 0 -0.0492404
v -0.00868241 1 -0.0492404
v -0.00868241 1 -0.0492404
v -0.017101 0 -0.0469846
v -0.017101 0 -0.0469846
v -0.017101 1 -0.0469846
v -0.017101 1 -0.0469846
v -0.025 0 -0.0433013
v -0.025 0 -0.0433013
v -0.025 1 -0.0433013
v -0.025 1 -0.0433013
v -0.0321394 0 -0.0383022
v -0.0321394 0 -0.0383022
v -0.0321394 1 -0.0383022
v -0.0321394 1 -0.0383022
v -0.0383022 0 -0.0321394
v -0.0383022 0 -0.0321394
v -0.0383022 1 -0.0321394
v -0.0383022 1 -0.0321394
v -0.0433013 0 -0.025
v -0.0433013 0 -0.025
v -0.0433013 1 -0.025
v -0.0433013 1 -0.025
v -0.0469846 0 -0.017101
v -0.0469846 0 -0.017101
v -0.0469846 1 -0.017101
v -0.0469846 1 -0.017101
v -0.0492404 0 -0.00868241
v -0.0492404 0 -0.00868241
v -0.0492404 1 -0.00868241
v -0.0492404 1 -0.00868241
v -0.05 0 -6.12323e-18
v -0.05 0 -6.12323e-18
v -0.05 1 -6.12323e-18
v -0.05 1 -6.12323e-18
v -0.0492404 0 0.00868241
v -0.0492404 0 0.00868241
v -0.0492404 1 0.00868241
v -0.0492404 1 0.00868241
v -0.0469846 0 0.017101
v -0.0469846 0 0.017101
v -0.0469846 1 0.017101
v -0.0469846 1 0.017101
v -0.0433013 0 0.025
v -0.0433013 0 0.025
v -0.0433013 1 0.025
v -0.0433013 1 0.025
v -0.0383022 0 0.0321394
v -0.0383022 0 0.0321394
v -0.0383022 1 0.0321394
v -0.0383022 1 0.0321394
v -0.0321394 0 0.0383022
v -0.0321394 0 0.0383022
v -0.0321394 1 0.0383022
v -0.0321394 1 0.0383022
v -0.025 0 0.0433013
v -0.025 0 0.0433013
v -0.025 1 0.0433013
v -0.025 1 0.0433013
v -0.017101 0 0.0469846
v -0.017101 0 0.0469846
v -0.017101 1 0.0469846
v -0.017101 1 0.0469846
v -0.00868241 0 0.0492404
v -0.00868241 0 0.0492404
v -0.00868241 1 0.0492404
v -0.00868241 1 0.0492404
v -9.18485e-18 0 0.05
v -9.18485e-18 0 0.05
v -9.18485e-18 1 0.05
v -9.18485e-18 1 0.05
v 0.00868241 0 0.0492404
v 0.00868241 0 0.0492404
v 0.00868241 1 0.0492404
v 0.00868241 1 0.0492404
v 0.017101 0 0.0469846
v 0.017101 0 0.0469846
v 0.017101 1 0.0469846
v 0.017101 1 0.0469846
v 0.025 0 0.0433013
v 0.025 0 0.0433013
v 0.025 1 0.0433013
v 0.025 1 0.0433013
v 0.0321394 0 0.0383022
v 0.0321394 0 0.0383022
v 0.0321394 1 0.0383022
v 0.0321394 1 0.0383022
v 0.0383022 0 0.0321394
v 0.0383022 0 0.0321394
v 0.0383022 1 0.0321394
v 0.0383022 1 0.0321394
v 0.0433013 0 0.025
v 0.0433013 0 0.025
v 0.0433013 1 0.025
v 0.0433013 1 0.025
v 0.0469846 0 0.017101
v 0.0469846 0 0.017101
v 0.0469846 1 0.017101
v 0.0469846 1 0.017101
v 0.0492404 0 0.00868241
v 0.0492404 0 0.00868241
v 0.0492404 1 0.00868241
v 0.0492404 1 0.00868241
# 146 vertices

vt 0.50000 0.50000
vt 0.00000 0.50000
vt 0.00760 0.58682
vt 0.00000 0.00000
vt 0.00000 1.00000
vt 0.02778 1.00000
vt 0.02778 0.00000
vt 1.00000 0.50000
vt 0.99240 0.58682
vt 0.03015 0.67101
vt 0.05556 1.00000
vt 0.05556 0.00000
vt 0.96985 0.67101
vt 0.06699 0.75000
vt 0.08333 1.00000
vt 0.08333 0.00000
vt 0.93301 0.75000
vt 0.11698 0.82139
vt 0.11111 1.00000
vt 0.11111 0.00000
vt 0.88302 0.82139
vt 0.17861 0.88302
vt 0.13889 1.00000
vt 0.13889 0.00000
vt 0.82139 0.88302
vt 0.25000 0.93301
vt 0.16667 1.00000
vt 0.16667 0.00000
vt 0.75000 0.93301
vt 0.32899 0.96985
vt 0.19444 1.00000
vt 0.19444 0.00000
vt 0.67101 0.96985
vt 0.41318 0.99240
vt 0.22222 1.00000
vt 0.22222 0.00000
vt 0.58682 0.99240
vt 0.50000 1.00000
vt 0.25000 1.00000
vt 0.25000 0.00000
vt 0.27778 1.00000
vt 0.27778 0.00000
vt 0.30556 1.00000
vt 0.30556 0.00000
vt 0.33333 1.00000
vt 0.33333 0.00000
vt 0.36111 1.00000
vt 0.36111 0.00000
vt 0.38889 1.00000
vt 0.38889 0.00000
vt 0.41667 1.00000
vt 0.41667 0.00000
vt 0.44444 1.00000
vt 0.44444 0.00000
vt 0.47222 1.00000
vt 0.47222 0.00000
vt 0.50000 0.00000
vt 0.99240 0.41318
vt 0.52778 1.00000
vt 0.52778 0.00000
vt 0.00760 0.41318
vt 0.96985 0.32899
vt 0.55556 1.00000
vt 0.55556 0.00000
vt 0.03015 0.32899
vt 0.93301 0.25000
vt 0.58333 1.00000
vt 0.58333 0.00000
vt 0.06699 0.25000
vt 0.88302 0.17861
vt 0.61111 1.00000
vt 0.61111 0.00000
vt 0.11698 0.17861
vt 0.82139 0.11698
vt 0.63889 1.00000
vt 0.63889 0.00000
vt 0.17861 0.11698
vt 0.75000 0.06699
vt 0.66667 1.00000
vt 0.66667 0.00000
vt 0.25000 0.06699
vt 0.67101 0.03015
vt 0.69444 1.00000
vt 0.69444 0.00000
vt 0.32899 0.03015
vt 0.58682 0.00760
vt 0.72222 1.00000
vt 0.72222 0.00000
vt 0.41318 0.00760
vt 0.75000 1.00000
vt 0.75000 0.00000
vt 0.77778 1.00000
vt 0.77778 0.00000
vt 0.80556 1.00000
vt 0.80556 0.00000
vt 0.83333 1.00000
vt 0.83333 0.00000
vt 0.86111 1.00000
vt 0.86111 0.00000
vt 0.88889 1.00000
vt 0.88889 0.00000
vt 0.91667 1.00000
vt 0.91667 0.00000
vt 0.94444 1.00000
vt 0.94444 0.00000
vt 0.97222 1.00000
vt 0.97222 0.00000
vt 1.00000 1.00000
vt 1.00000 0.00000
# 109 texture coordinates

vn 0 -1 -0
vn 1 0 -0
vn 0.984808 0 -0.173648
vn 0 1 -0
vn 0.939693 0 -0.34202
vn 0.866025 0 -0.5
vn 0.766044 0 -0.642788
vn 0.642788 0 -0.766044
vn 0.5 0 -0.866025
vn 0.34202 0 -0.939693
vn 0.173648 0 -0.984808
vn 0 0 -1
vn -0.173648 0 -0.984808
vn -0.34202 0 -0.939693
vn -0.5 0 -0.866025
vn -0.642788 0 -0.766044
vn -0.766044 0 -0.642788
vn -0.866025 0 -0.5
vn -0.939693 0 -0.34202
vn -0.984808 0 -0.173648
vn -1 0 -0
vn -0.984808 0 0.173648
vn -0.939693 0 0.34202
vn -0.866025 0 0.5
vn -0.766044 0 0.642788
vn -0.642788 0 0.766044
vn -0.5 0 0.866025
vn -0.34202 0 0.939693
vn -0.173648 0 0.984808
vn 0 0 1
vn 0.173648 0 0.984808
vn 0.34202 0 0.939693
vn 0.5 0 0.866025
vn 0.642788 0 0.766044
vn 0.766044 0 0.642788
vn 0.866025 0 0.5
vn 0.939693 0 0.34202
vn 0.984808 0 0.173648
# 38 vertex normals

f 7/3/1 3/2/1 1/1/1
f 8/7/3 9/6/3 5/5/2 4/4/2
f 10/9/4 2/1/4 6/8/4
f 11/10/1 7/3/1 1/1/1
f 12/12/5 13/11/5 9/6/3 8/7/3
f 14/13/4 2/1/4 10/9/4
f 15/14/1 11/10/1 1/1/1
f 16/16/6 17/15/6 13/11/5 12/12/5
f 18/17/4 2/1/4 14/13/4
f 19/18/1 15/14/1 1/1/1
f 20/20/7 21/19/7 17/15/6 16/16/6
f 22/21/4 2/1/4 18/17/4
f 23/22/1 19/18/1 1/1/1
f 24/24/8 25/23/8 21/19/7 20/20/7
f 26/25/4 2/1/4 22/21/4
f 27/26/1 23/22/1 1/1/1
f 28/28/9 29/27/9 25/23/8 24/24/8
f 30/29/4 2/1/4 26/25/4
f 31/30/1 27/26/1 1/1/1
f 32/32/10 33/31/10 29/27/9 28/28/9
f 34/33/4 2/1/4 30/29/4
f 35/34/1 31/30/1 1/1/1
f 36/36/11 37/35/11 33/31/10 32/32/10
f 38/37/4 2/1/4 34/33/4
f 39/38/1 35/34/1 1/1/1
f 40/40/12 41/39/12 37/35/11 36/36/11
f 42/38/4 2/1/4 38/37/4
f 43/37/1 39/38/1 1/1/1
f 44/42/13 45/41/13 41/39/12 40/40/12
f 46/34/4 2/1/4 42/38/4
f 47/33/1 43/37/1 1/1/1
f 48/44/14 49/43/14 45/41/13 44/42/13
f 50/30/4 2/1/4 46/34/4
f 51/29/1 47/33/1 1/1/1
f 52/46/15 53/45/15 49/43/14 48/44/14
f 54/26/4 2/1/4 50/30/4
f 55/25/1 51/29/1 1/1/1
f 56/48/16 57/47/16 53/45/15 52/46/15
f 58/22/4 2/1/4 54/26/4
f 59/21/1 55/25/1 1/1/1
f 60/50/17 61/49/17 57/47/16 56/48/16
f 62/18/4 2/1/4 58/22/4
f 63/17/1 59/21/1 1/1/1
f 64/52/18 65/51/18 61/49/17 60/50/17
f 66/14/4 2/1/4 62/18/4
f 67/13/1 63/17/1 1/1/1
f 68/54/19 69/53/19 65/51/18 64/52/18
f 70/10/4 2/1/4 66/14/4
f 71/9/1 67/13/1 1/1/1
f 72/56/20 73/55/20 69/53/19 68/54/19
f 74/3/4 2/1/4 70/10/4
f 75/8/1 71/9/1 1/1/1
f 76/57/21 77/38/21 73/55/20 72/56/20
f 78/2/4 2/1/4 74/3/4
f 79/58/1 75/8/1 1/1/1
f 80/60/22 81/59/22 77/38/21 76/57/21
f 82/61/4 2/1/4 78/2/4
f 83/62/1 79/58/1 1/1/1
f 84/64/23 85/63/23 81/59/22 80/60/22
f 86/65/4 2/1/4 82/61/4
f 87/66/1 83/62/1 1/1/1
f 88/68/24 89/67/24 85/63/23 84/64/23
f 90/69/4 2/1/4 86/65/4
f 91/70/1 87/66/1 1/1/1
f 92/72/25 93/71/25 89/67/24 88/68/24
f 94/73/4 2/1/4 90/69/4
f 95/74/1 91/70/1 1/1/1
f 96/76/26 97/75/26 93/71/25 92/72/25
f 98/77/4 2/1/4 94/73/4
f 99/78/1 95/74/1 1/1/1
f 100/80/27 101/79/27 97/75/26 96/76/26
f 102/81/4 2/1/4 98/77/4
f 103/82/1 99/78/1 1/1/1
f 104/84/28 105/83/28 101/79/27 100/80/27
f 106/85/4 2/1/4 102/81/4
f 107/86/1 103/82/1 1/1/1
f 108/88/29 109/87/29 105/83/28 104/84/28
f 110/89/4 2/1/4 106/85/4
f 111/57/1 107/86/1 1/1/1
f 112/91/30 113/90/30 109/87/29 108/88/29
f 114/57/4 2/1/4 110/89/4
f 115/89/1 111/57/1 1/1/1
f 116/93/31 117/92/31 113/90/30 112/91/30
f 118/86/4 2/1/4 114/57/4
f 119/85/1 115/89/1 1/1/1
f 120/95/32 121/94/32 117/92/31 116/93/31
f 122/82/4 2/1/4 118/86/4
f 123/81/1 119/85/1 1/1/1
f 124/97/33 125/96/33 121/94/32 120/95/32
f 126/78/4 2/1/4 122/82/4
f 127/77/1 123/81/1 1/1/1
f 128/99/34 129/98/34 125/96/33 124/97/33
f 130/74/4 2/1/4 126/78/4
f 131/73/1 127/77/1 1/1/1
f 132/101/35 133/100/35 129/98/34 128/99/34
f 134/70/4 2/1/4 130/74/4
f 135/69/1 131/73/1 1/1/1
f 136/103/36 137/102/36 133/100/35 132/101/35
f 138/66/4 2/1/4 134/70/4
f 139/65/1 135/69/1 1/1/1
f 140/105/37 141/104/37 137/102/36 136/103/36
f 142/62/4 2/1/4 138/66/4
f 143/61/1 139/65/1 1/1/1
f 144/107/38 145/106/38 141/104/37 140/105/37
f 146/58/4 2/1/4 142/62/4
f 3/2/1 143/61/1 1/1/1
f 4/109/2 5/108/2 145/106/38 144/107/38
f 6/8/4 2/1/4 146/58/4
# 108 facets

